<?xml version="1.0" standalone="no"?>
<!DOCTYPE svg PUBLIC "-//W3C//DTD SVG 20010904//EN"
 "http://www.w3.org/TR/2001/REC-SVG-20010904/DTD/svg10.dtd">
<svg version="1.0" xmlns="http://www.w3.org/2000/svg"
 width="600.000000pt" height="720.000000pt" viewBox="0 0 600.000000 720.000000"
 preserveAspectRatio="xMidYMid meet">

<g transform="translate(0.000000,720.000000) scale(0.100000,-0.100000)"
fill="#000000" stroke="none">
<path d="M0 6079 l0 -1122 62 57 c243 220 423 348 668 475 597 309 1291 387
1950 221 159 -40 421 -133 453 -160 8 -7 -247 -530 -259 -530 -3 0 -38 13 -77
30 -219 90 -455 138 -723 147 -383 12 -714 -58 -1044 -221 -424 -210 -774
-556 -984 -974 l-46 -92 0 -890 0 -890 56 -107 c336 -640 957 -1071 1679
-1164 115 -14 403 -14 520 1 424 54 819 226 1147 499 354 296 620 736 718
1186 85 395 64 802 -60 1170 -16 50 -42 118 -57 153 -16 37 -23 66 -17 71 25
24 507 272 514 265 4 -5 26 -52 48 -104 127 -302 193 -586 212 -920 46 -797
-241 -1550 -808 -2118 -930 -932 -2394 -1078 -3490 -348 -150 99 -232 164
-364 287 l-98 90 0 -545 0 -546 2895 0 2895 0 0 220 0 220 51 0 c42 0 54 4 70
24 11 14 35 31 54 37 l35 13 0 2143 0 2143 -82 -44 c-216 -117 -394 -140 -544
-72 l-51 23 -1389 -734 c-764 -404 -1468 -775 -1564 -824 l-175 -91 151 149
151 148 1319 734 c725 404 1340 746 1366 760 39 21 48 31 48 54 0 48 53 167
100 225 66 81 169 164 270 216 48 25 92 46 98 46 14 0 32 -71 32 -127 0 -65
-24 -155 -59 -219 l-28 -52 64 -12 c99 -17 191 -58 246 -108 l47 -45 0 1187 0
1186 -3000 0 -3000 0 0 -1121z m3777 949 c57 -59 112 -203 113 -291 l0 -27 38
19 c78 40 181 63 263 59 112 -5 114 -9 55 -124 -105 -206 -238 -325 -400 -358
l-61 -13 -741 -1407 -742 -1407 -132 -135 c-73 -74 -134 -134 -136 -134 -2 0
352 713 788 1584 l792 1583 -16 34 c-76 165 -50 380 74 596 46 80 48 81 105
21z m1130 -739 c43 -84 52 -216 23 -318 l-7 -26 136 0 c122 0 142 -3 188 -24
79 -35 82 -42 34 -99 -82 -97 -222 -195 -331 -232 -62 -21 -177 -30 -222 -17
-26 7 -97 -61 -1349 -1285 -727 -711 -1332 -1297 -1345 -1302 -19 -8 -29 -5
-49 14 -14 13 -25 32 -23 42 2 10 585 613 1296 1341 l1294 1324 2 104 c2 91 6
113 32 175 17 39 48 97 69 130 49 74 198 228 216 222 7 -2 23 -24 36 -49z
m-1376 -958 c138 -92 324 -241 324 -260 0 -5 -92 -102 -204 -215 l-203 -205
-80 65 c-62 50 -180 134 -257 181 -6 3 270 523 279 523 4 0 68 -40 141 -89z
m628 -575 c63 -77 214 -296 208 -302 -8 -8 -508 -284 -515 -284 -4 0 -29 34
-56 76 -27 41 -76 107 -108 147 l-59 72 213 207 213 207 20 -23 c11 -13 49
-58 84 -100z m-1952 -121 c145 -20 289 -57 379 -95 l44 -19 -131 -263 c-72
-145 -132 -264 -133 -265 0 -1 -39 10 -86 23 -245 71 -500 48 -736 -66 -306
-148 -510 -422 -568 -759 -28 -167 -15 -335 40 -499 110 -329 393 -587 740
-674 125 -31 351 -32 474 -1 442 111 746 462 792 916 13 128 2 249 -36 378
-23 78 -24 85 -8 97 25 19 488 262 500 262 6 0 24 -39 42 -87 174 -478 114
-1026 -158 -1439 -211 -321 -510 -552 -856 -663 -196 -63 -281 -75 -511 -75
-230 0 -315 12 -511 75 -575 184 -1007 696 -1100 1304 -18 119 -18 351 1 473
112 733 691 1297 1422 1381 112 13 291 12 400 -4z m726 -285 c40 -28 85 -61
100 -74 l29 -23 -209 -214 -209 -213 -37 28 -37 29 43 81 c24 44 86 161 138
259 51 97 97 177 102 177 5 0 41 -23 80 -50z m369 -361 c31 -41 57 -79 58 -86
0 -9 -474 -283 -506 -291 -6 -2 -19 9 -28 22 l-16 26 207 205 c115 112 212
203 218 201 5 -1 35 -36 67 -77z m-1209 -525 c3 -4 -37 -92 -89 -196 -53 -105
-96 -203 -96 -219 -2 -51 78 -130 129 -128 10 0 104 47 208 103 105 57 194
100 199 95 4 -4 7 -52 4 -106 -3 -78 -9 -109 -29 -153 -81 -173 -279 -281
-463 -251 -143 23 -267 116 -327 243 -32 69 -34 79 -34 183 0 106 1 113 36
185 55 115 139 189 264 232 48 17 185 25 198 12z"/>
</g>
</svg>
